<svg id="Capa_1" enable-background="new 0 0 485.98 485.98" height="512" viewBox="0 0 485.98 485.98" width="512" xmlns="http://www.w3.org/2000/svg"><path d="m485.98 102.16v281.66c0 9.62-7.8 17.41-17.41 17.41h-451.16c-9.61 0-17.41-7.79-17.41-17.41v-281.66c0-9.62 7.8-17.41 17.41-17.41h451.16c9.61 0 17.41 7.79 17.41 17.41z" fill="#5db33a"/><path d="m485.98 102.16v281.66c0 9.62-7.8 17.41-17.41 17.41h-286.43v-316.48h286.43c9.61 0 17.41 7.79 17.41 17.41z" fill="#e04955"/><circle cx="182.136" cy="242.99" fill="#fed22b" r="83.67"/><path d="m182.136 299.81c-24.159 0-43.744-19.585-43.744-43.744v-57.896h87.487v57.896c.001 24.159-19.584 43.744-43.743 43.744z" fill="#fff5f4"/><g fill="#4377c6"><path d="m166.984 239.94h-8.971c-1.457 0-2.638 1.181-2.638 2.638v6.79c0 3.934 3.189 7.123 7.123 7.123s7.123-3.189 7.123-7.123v-6.79c.001-1.456-1.18-2.638-2.637-2.638z"/><path d="m186.622 239.94h-8.971c-1.457 0-2.638 1.181-2.638 2.638v6.79c0 3.934 3.189 7.123 7.123 7.123s7.123-3.189 7.123-7.123v-6.79c.001-1.456-1.18-2.638-2.637-2.638z"/><path d="m186.622 217.244h-8.971c-1.457 0-2.638 1.181-2.638 2.638v6.79c0 3.934 3.189 7.123 7.123 7.123s7.123-3.189 7.123-7.123v-6.79c.001-1.457-1.18-2.638-2.637-2.638z"/><path d="m186.622 262.637h-8.971c-1.457 0-2.638 1.181-2.638 2.638v6.79c0 3.934 3.189 7.123 7.123 7.123s7.123-3.189 7.123-7.123v-6.79c.001-1.457-1.18-2.638-2.637-2.638z"/><path d="m206.259 239.94h-8.971c-1.457 0-2.638 1.181-2.638 2.638v6.79c0 3.934 3.189 7.123 7.123 7.123s7.123-3.189 7.123-7.123v-6.79c.001-1.456-1.18-2.638-2.637-2.638z"/></g><path d="m225.88 190.67h-87.487c-4.142 0-7.5 3.358-7.5 7.5v57.896c0 28.256 22.988 51.244 51.244 51.244s51.244-22.988 51.244-51.244v-57.896c-.001-4.142-3.359-7.5-7.501-7.5zm-7.5 65.396c0 19.985-16.259 36.244-36.244 36.244s-36.244-16.259-36.244-36.244v-50.396h72.487v50.396z" fill="#e5646e"/><path d="m468.57 366.23h-286.43v35h286.43c9.61 0 17.41-7.79 17.41-17.41v-35c0 9.62-7.8 17.41-17.41 17.41z" fill="#da2f3c"/><path d="m48.95 366.23c-7.71 0-13.95-6.24-13.95-13.95v-250.12c0-9.62 7.8-17.41 17.41-17.41h-35c-9.62 0-17.41 7.79-17.41 17.41v281.66c0 9.62 7.79 17.41 17.41 17.41h164.73v-35z" fill="#5ca33b"/></svg>