<svg height="512pt" viewBox="0 0 512 512.001" width="512pt" xmlns="http://www.w3.org/2000/svg"><path d="m506.117188 238.9375c-12.449219-15.898438-32.738282-36.441406-54.042969-51.757812-6.6875-4.808594-10.09375-13.035157-8.765625-21.160157 4.238281-25.910156 4.058594-54.796875 1.613281-74.84375-1.539063-12.605469-11.492187-22.558593-24.097656-24.097656-20.046875-2.441406-48.933594-2.625-74.84375 1.613281-8.125 1.328125-16.351563-2.078125-21.15625-8.765625-15.316407-21.304687-35.863281-41.59375-51.761719-54.042969-10.019531-7.84375-24.105469-7.84375-34.125 0-15.898438 12.449219-36.441406 32.738282-51.757812 54.042969-4.808594 6.6875-13.03125 10.09375-21.160157 8.765625-25.90625-4.238281-54.796875-4.054687-74.84375-1.613281-12.605469 1.539063-22.558593 11.492187-24.097656 24.097656-2.441406 20.046875-2.625 48.933594 1.613281 74.84375 1.328125 8.125-2.078125 16.351563-8.765625 21.160157-21.304687 15.3125-41.59375 35.859374-54.042969 51.757812-7.84375 10.019531-7.84375 24.105469 0 34.125 12.449219 15.898438 32.738282 36.445312 54.042969 51.757812 6.6875 4.808594 10.097657 13.035157 8.765625 21.160157-4.238281 25.910156-4.054687 54.796875-1.613281 74.84375 1.539063 12.605469 11.492187 22.558593 24.101563 24.097656 20.042968 2.441406 48.933593 2.625 74.839843-1.613281 8.128907-1.328125 16.355469 2.078125 21.160157 8.765625 15.316406 21.304687 35.859374 41.59375 51.761718 54.042969 10.015625 7.84375 24.105469 7.84375 34.121094 0 15.902344-12.449219 36.445312-32.738282 51.761719-54.042969 4.804687-6.6875 13.03125-10.09375 21.160156-8.765625 25.90625 4.238281 54.792969 4.054687 74.839844 1.613281 12.605469-1.539063 22.5625-11.492187 24.097656-24.097656 2.445313-20.046875 2.625-48.933594-1.613281-74.84375-1.328125-8.125 2.078125-16.351563 8.765625-21.160157 21.308593-15.3125 41.597656-35.859374 54.042969-51.757812 7.84375-10.019531 7.84375-24.105469 0-34.125zm0 0" fill="#eea849"/><path d="m446.578125 383.566406c-337.367187 53.679688-333.332031-204.621094-295.703125-316.835937-21.511719-2.121094-43.492188-1.625-59.699219.347656-12.605469 1.539063-22.558593 11.492187-24.097656 24.097656-2.441406 20.046875-2.625 48.933594 1.613281 74.84375 1.328125 8.125-2.078125 16.351563-8.765625 21.160157-21.304687 15.3125-41.59375 35.859374-54.042969 51.757812-7.84375 10.019531-7.84375 24.105469 0 34.125 12.449219 15.898438 32.738282 36.445312 54.042969 51.757812 6.6875 4.808594 10.097657 13.035157 8.765625 21.160157-4.238281 25.910156-4.054687 54.796875-1.613281 74.84375 1.539063 12.605469 11.492187 22.558593 24.101563 24.097656 20.042968 2.445313 48.933593 2.625 74.839843-1.613281 8.128907-1.328125 16.355469 2.078125 21.160157 8.765625 15.316406 21.308593 35.859374 41.597656 51.757812 54.042969 10.019531 7.84375 24.105469 7.84375 34.125 0 15.898438-12.445313 36.445312-32.734376 51.761719-54.042969 4.804687-6.6875 13.03125-10.09375 21.15625-8.765625 25.910156 4.238281 54.796875 4.058594 74.84375 1.613281 12.605469-1.535156 22.558593-11.492187 24.097656-24.097656 1.285156-10.546875 1.9375-23.542969 1.65625-37.257813zm0 0" fill="#e9901b"/><path d="m432.425781 256c0 97.4375-78.988281 176.425781-176.425781 176.425781s-176.425781-78.988281-176.425781-176.425781 78.988281-176.425781 176.425781-176.425781 176.425781 78.988281 176.425781 176.425781zm0 0" fill="#f7ef87"/><path d="m180.839844 96.351562c-59.84375 28.222657-101.265625 89.09375-101.265625 159.648438 0 97.4375 78.988281 176.425781 176.425781 176.425781 63.90625 0 119.875-33.976562 150.832031-84.855469-209.367187 45.585938-281.550781-168.980468-225.992187-251.21875zm0 0" fill="#efd176"/><g fill="#f7ef87"><path d="m166.199219 46.695312c-2.945313 0-5.738281-1.746093-6.933594-4.632812l-8.363281-20.195312c-1.585938-3.828126.230468-8.214844 4.058594-9.800782 3.824218-1.585937 8.210937.234375 9.796874 4.058594l8.367188 20.199219c1.585938 3.824219-.234375 8.210937-4.058594 9.796875-.9375.390625-1.910156.574218-2.867187.574218zm0 0"/><path d="m39.191406 173.695312c-.957031 0-1.929687-.183593-2.867187-.570312l-20.199219-8.367188c-3.824219-1.585937-5.640625-5.972656-4.058594-9.796874 1.585938-3.828126 5.972656-5.644532 9.800782-4.0625l20.195312 8.367187c3.828125 1.585937 5.644531 5.972656 4.058594 9.800781-1.195313 2.886719-3.988282 4.628906-6.929688 4.628906zm0 0"/><path d="m19 361.671875c-2.945312 0-5.738281-1.742187-6.933594-4.632813-1.582031-3.824218.234375-8.214843 4.058594-9.796874l20.199219-8.367188c3.828125-1.585938 8.214843.230469 9.796875 4.058594 1.585937 3.828125-.230469 8.214844-4.058594 9.800781l-20.195312 8.367187c-.941407.386719-1.910157.570313-2.867188.570313zm0 0"/><path d="m157.828125 500.507812c-.957031 0-1.929687-.1875-2.867187-.574218-3.828126-1.585938-5.644532-5.972656-4.058594-9.800782l8.363281-20.195312c1.585937-3.828125 5.972656-5.644531 9.800781-4.058594 3.828125 1.585938 5.644532 5.972656 4.058594 9.796875l-8.367188 20.199219c-1.195312 2.886719-3.988281 4.632812-6.929687 4.632812zm0 0"/><path d="m354.171875 500.507812c-2.941406 0-5.734375-1.746093-6.929687-4.632812l-8.367188-20.199219c-1.585938-3.824219.234375-8.210937 4.058594-9.796875 3.828125-1.585937 8.214844.230469 9.800781 4.058594l8.363281 20.195312c1.585938 3.828126-.230468 8.214844-4.058594 9.800782-.9375.386718-1.910156.574218-2.867187.574218zm0 0"/><path d="m493 361.671875c-.957031 0-1.925781-.183594-2.867188-.574219l-20.195312-8.363281c-3.824219-1.585937-5.644531-5.972656-4.058594-9.800781 1.585938-3.828125 5.976563-5.644532 9.800782-4.058594l20.195312 8.367188c3.828125 1.585937 5.644531 5.972656 4.058594 9.796874-1.195313 2.890626-3.988282 4.632813-6.933594 4.632813zm0 0"/><path d="m472.8125 173.695312c-2.945312 0-5.734375-1.742187-6.933594-4.628906-1.585937-3.828125.234375-8.214844 4.058594-9.800781l20.195312-8.367187c3.828126-1.582032 8.214844.234374 9.800782 4.0625 1.585937 3.824218-.230469 8.210937-4.058594 9.796874l-20.195312 8.367188c-.941407.386719-1.914063.570312-2.867188.570312zm0 0"/><path d="m345.800781 46.695312c-.957031 0-1.925781-.183593-2.867187-.574218-3.824219-1.585938-5.644532-5.972656-4.058594-9.800782l8.367188-20.195312c1.582031-3.828125 5.972656-5.644531 9.796874-4.058594 3.828126 1.585938 5.644532 5.972656 4.058594 9.796875l-8.363281 20.199219c-1.195313 2.886719-3.988281 4.632812-6.933594 4.632812zm0 0"/></g><path d="m189.320312 240.273438c0-17.148438-17.453124-31.050782-38.988281-31.050782-21.53125 0-38.988281 13.902344-38.988281 31.050782 0 17.148437 17.457031 31.046874 38.988281 31.046874 21.535157 0 38.988281-13.898437 38.988281-31.046874zm0 0" fill="#eda1ab"/><path d="m400.65625 240.273438c0-17.148438-17.453125-31.050782-38.988281-31.050782-21.53125 0-38.988281 13.902344-38.988281 31.050782 0 17.148437 17.457031 31.046874 38.988281 31.046874 21.535156 0 38.988281-13.898437 38.988281-31.046874zm0 0" fill="#eda1ab"/><path d="m191.613281 213.984375c-4.140625 0-7.5-3.355469-7.5-7.5 0-6.097656-4.960937-11.054687-11.058593-11.054687-6.097657 0-11.058594 4.960937-11.058594 11.054687 0 4.144531-3.355469 7.5-7.5 7.5-4.140625 0-7.5-3.355469-7.5-7.5 0-14.367187 11.691406-26.054687 26.058594-26.054687 14.371093 0 26.058593 11.6875 26.058593 26.054687 0 4.144531-3.359375 7.5-7.5 7.5zm0 0" fill="#4e5660"/><path d="m357.503906 213.984375c-4.144531 0-7.5-3.355469-7.5-7.5 0-6.097656-4.960937-11.054687-11.058594-11.054687-6.097656 0-11.058593 4.960937-11.058593 11.054687 0 4.144531-3.355469 7.5-7.5 7.5s-7.5-3.355469-7.5-7.5c0-14.367187 11.6875-26.054687 26.058593-26.054687 14.367188 0 26.058594 11.6875 26.058594 26.054687 0 4.144531-3.355468 7.5-7.5 7.5zm0 0" fill="#4e5660"/><path d="m256 244.644531c-9.710938 0-18.949219-4.207031-25.339844-11.539062-2.71875-3.125-2.394531-7.863281.726563-10.582031 3.121093-2.722657 7.859375-2.398438 10.582031.726562 3.542969 4.0625 8.65625 6.394531 14.03125 6.394531s10.488281-2.332031 14.035156-6.394531c2.71875-3.125 7.457032-3.449219 10.578125-.726562 3.125 2.722656 3.449219 7.457031.726563 10.582031-6.390625 7.332031-15.628906 11.539062-25.339844 11.539062zm0 0" fill="#4e5660"/></svg>